<svg width="85" height="34" viewBox="0 0 85 34" fill="none" xmlns="http://www.w3.org/2000/svg">
<path d="M42.8212 14.1346V15.6146H35.6081V5H42.6879V6.48007H37.267V9.5H41.9621V10.8904H37.267V14.1346H42.8212Z" fill="white"/>
<path d="M47.0525 15.7641C46.4304 15.7641 45.8083 15.6645 45.1862 15.4651C44.574 15.2558 44.0458 14.9618 43.6014 14.5831L44.2531 13.5365C44.7172 13.8754 45.1764 14.1346 45.6306 14.314C46.0848 14.4834 46.5489 14.5681 47.0228 14.5681C47.5067 14.5681 47.8868 14.4734 48.1633 14.2841C48.4497 14.0947 48.5928 13.8256 48.5928 13.4767C48.5928 13.1478 48.4348 12.9086 48.1189 12.7591C47.8029 12.6096 47.3092 12.4452 46.6377 12.2658C46.1539 12.1362 45.7392 12.0116 45.3936 11.892C45.048 11.7724 44.7666 11.6329 44.5494 11.4734C44.3321 11.314 44.1741 11.1296 44.0754 10.9203C43.9767 10.711 43.9273 10.4568 43.9273 10.1578C43.9273 9.75914 44.0013 9.40532 44.1495 9.09635C44.3074 8.78738 44.5197 8.52824 44.7863 8.31894C45.0628 8.09967 45.3837 7.93522 45.7491 7.82558C46.1144 7.71595 46.5094 7.66113 46.934 7.66113C47.5165 7.66113 48.0596 7.75083 48.5632 7.93023C49.0668 8.10963 49.5161 8.36877 49.911 8.70764L49.2149 9.69435C48.4941 9.11628 47.7288 8.82724 46.9192 8.82724C46.5044 8.82724 46.1539 8.91694 45.8676 9.09635C45.5911 9.26578 45.4528 9.53987 45.4528 9.91861C45.4528 10.0781 45.4825 10.2126 45.5417 10.3223C45.601 10.4319 45.6948 10.5266 45.8231 10.6063C45.9614 10.686 46.1342 10.7608 46.3415 10.8306C46.5588 10.8904 46.8254 10.9601 47.1413 11.0399C47.6647 11.1694 48.1139 11.299 48.4892 11.4286C48.8742 11.5581 49.1902 11.7126 49.4371 11.892C49.6839 12.0615 49.8666 12.2658 49.9851 12.505C50.1036 12.7342 50.1628 13.0133 50.1628 13.3422C50.1628 14.0897 49.8814 14.6827 49.3186 15.1213C48.7656 15.5498 48.0103 15.7641 47.0525 15.7641Z" fill="white"/>
<path d="M51.0825 11.6977C51.0825 11.1495 51.1763 10.6312 51.3639 10.1429C51.5515 9.65449 51.8181 9.22591 52.1637 8.85714C52.5192 8.48837 52.9438 8.19934 53.4375 7.99003C53.9312 7.77076 54.4842 7.66113 55.0964 7.66113C55.8962 7.66113 56.5824 7.84053 57.1551 8.19934C57.7377 8.54817 58.1722 9.01661 58.4585 9.60465L56.8737 10.113C56.6861 9.78405 56.4343 9.5299 56.1184 9.3505C55.8024 9.16113 55.4518 9.06645 55.0667 9.06645C54.7409 9.06645 54.4348 9.13123 54.1485 9.2608C53.872 9.39037 53.6301 9.57475 53.4227 9.81395C53.2153 10.0432 53.0524 10.3173 52.9339 10.6362C52.8154 10.9552 52.7562 11.309 52.7562 11.6977C52.7562 12.0764 52.8154 12.4302 52.9339 12.7591C53.0623 13.0781 53.2302 13.3571 53.4375 13.5963C53.6547 13.8355 53.9016 14.0249 54.1781 14.1645C54.4644 14.294 54.7656 14.3588 55.0816 14.3588C55.279 14.3588 55.4765 14.3339 55.674 14.2841C55.8715 14.2243 56.0492 14.1445 56.2072 14.0449C56.3751 13.9452 56.5183 13.8306 56.6367 13.701C56.7651 13.5714 56.8589 13.4319 56.9182 13.2824L58.5178 13.7608C58.261 14.3488 57.8315 14.8322 57.2292 15.211C56.6269 15.5797 55.9159 15.7641 55.0964 15.7641C54.494 15.7641 53.946 15.6545 53.4523 15.4352C52.9586 15.2159 52.534 14.9219 52.1786 14.5532C51.833 14.1744 51.5614 13.7409 51.3639 13.2525C51.1763 12.7641 51.0825 12.2458 51.0825 11.6977Z" fill="white"/>
<path d="M61.9184 15.7641C61.5431 15.7641 61.1926 15.7043 60.8668 15.5847C60.5508 15.4552 60.2743 15.2807 60.0373 15.0615C59.8102 14.8422 59.6275 14.5831 59.4893 14.2841C59.3609 13.9851 59.2968 13.6611 59.2968 13.3123C59.2968 12.9435 59.3758 12.6096 59.5337 12.3106C59.6917 12.0116 59.9139 11.7525 60.2002 11.5332C60.4965 11.314 60.8421 11.1445 61.237 11.0249C61.6419 10.9053 62.0862 10.8455 62.57 10.8455C62.9354 10.8455 63.2958 10.8804 63.6513 10.9502C64.0067 11.01 64.3277 11.0947 64.614 11.2043V10.6661C64.614 10.088 64.4511 9.63954 64.1252 9.3206C63.7994 8.99169 63.3304 8.82724 62.7182 8.82724C62.3034 8.82724 61.8937 8.90698 61.4888 9.06645C61.0939 9.21595 60.6841 9.43522 60.2595 9.72425L59.7559 8.67774C60.7532 8 61.79 7.66113 62.8663 7.66113C63.9327 7.66113 64.7621 7.93522 65.3546 8.48339C65.947 9.03156 66.2432 9.81894 66.2432 10.8455V13.6711C66.2432 14.0199 66.3864 14.1993 66.6728 14.2093V15.6146C66.5148 15.6445 66.3765 15.6645 66.2581 15.6744C66.1494 15.6844 66.0408 15.6894 65.9322 15.6894C65.6162 15.6894 65.3694 15.6096 65.1916 15.4502C65.0238 15.2907 64.9201 15.0864 64.8806 14.8372L64.8362 14.3439C64.4906 14.8023 64.0611 15.1561 63.5476 15.4053C63.044 15.6445 62.5009 15.7641 61.9184 15.7641ZM62.3627 14.5532C62.7577 14.5532 63.1279 14.4834 63.4735 14.3439C63.829 14.1944 64.1055 13.99 64.303 13.7309C64.5103 13.5515 64.614 13.3621 64.614 13.1628V12.1312C64.3375 12.0216 64.0413 11.9369 63.7253 11.8771C63.4192 11.8173 63.1181 11.7874 62.8218 11.7874C62.2393 11.7874 61.7604 11.9169 61.3851 12.1761C61.0198 12.4253 60.8371 12.7591 60.8371 13.1777C60.8371 13.5664 60.9803 13.8954 61.2667 14.1645C61.553 14.4236 61.9184 14.5532 62.3627 14.5532Z" fill="white"/>
<path d="M72.6188 15.7641C71.9967 15.7641 71.4487 15.6146 70.9748 15.3156C70.5008 15.0166 70.1256 14.6279 69.8491 14.1495V18.799H68.2199V7.79568H69.6565V9.201C69.9528 8.73256 70.3329 8.3588 70.797 8.07973C71.271 7.80067 71.8042 7.66113 72.3966 7.66113C72.9298 7.66113 73.4186 7.77076 73.863 7.99003C74.3073 8.2093 74.6924 8.50332 75.0182 8.87209C75.3441 9.24086 75.5959 9.66944 75.7736 10.1578C75.9612 10.6462 76.055 11.1595 76.055 11.6977C76.055 12.2658 75.9711 12.799 75.8032 13.2973C75.6354 13.7857 75.3984 14.2143 75.0923 14.5831C74.7862 14.9419 74.4208 15.2309 73.9963 15.4502C73.5815 15.6595 73.1224 15.7641 72.6188 15.7641ZM72.0856 14.3588C72.4312 14.3588 72.7422 14.2841 73.0187 14.1346C73.3051 13.9851 73.547 13.7857 73.7445 13.5365C73.9518 13.2874 74.1098 13.0033 74.2184 12.6844C74.327 12.3654 74.3813 12.0365 74.3813 11.6977C74.3813 11.3389 74.3172 11 74.1888 10.6811C74.0703 10.3621 73.9024 10.0831 73.6852 9.84385C73.4779 9.60465 73.2261 9.41528 72.9298 9.27575C72.6336 9.13621 72.3127 9.06645 71.9671 9.06645C71.7597 9.06645 71.5425 9.10631 71.3154 9.18605C71.0883 9.26578 70.876 9.37542 70.6785 9.51495C70.481 9.65449 70.3082 9.81894 70.1601 10.0083C70.012 10.1877 69.9083 10.387 69.8491 10.6063V12.6545C69.9478 12.8937 70.0762 13.1179 70.2342 13.3272C70.3922 13.5365 70.565 13.7159 70.7526 13.8654C70.9501 14.015 71.1624 14.1346 71.3895 14.2243C71.6166 14.314 71.8486 14.3588 72.0856 14.3588Z" fill="white"/>
<path d="M81.0306 15.7641C80.4282 15.7641 79.8802 15.6595 79.3865 15.4502C78.8928 15.2309 78.4682 14.9369 78.1127 14.5681C77.7671 14.1993 77.4956 13.7708 77.2981 13.2824C77.1105 12.794 77.0167 12.2757 77.0167 11.7276C77.0167 11.1794 77.1105 10.6611 77.2981 10.1728C77.4956 9.67442 77.7671 9.24086 78.1127 8.87209C78.4682 8.49336 78.8928 8.19934 79.3865 7.99003C79.8802 7.77076 80.4332 7.66113 81.0454 7.66113C81.6477 7.66113 82.1908 7.77076 82.6746 7.99003C83.1683 8.2093 83.588 8.50332 83.9336 8.87209C84.2792 9.2309 84.5408 9.65449 84.7186 10.1429C84.9062 10.6213 85 11.1246 85 11.6528C85 11.7724 84.995 11.887 84.9852 11.9967C84.9753 12.0963 84.9654 12.1811 84.9556 12.2508H78.7496C78.7793 12.5997 78.8582 12.9136 78.9866 13.1927C79.1248 13.4718 79.2976 13.7159 79.505 13.9253C79.7222 14.1246 79.9642 14.2791 80.2308 14.3887C80.5072 14.4983 80.7936 14.5532 81.0898 14.5532C81.307 14.5532 81.5193 14.5282 81.7267 14.4784C81.9439 14.4186 82.1414 14.3389 82.3191 14.2392C82.4969 14.1296 82.6549 14 82.7931 13.8505C82.9313 13.701 83.04 13.5365 83.119 13.3571L84.5112 13.7608C84.2446 14.3488 83.8003 14.8322 83.1782 15.211C82.566 15.5797 81.8501 15.7641 81.0306 15.7641ZM83.3856 11.1146C83.3559 10.7857 83.272 10.4817 83.1338 10.2027C83.0054 9.92359 82.8375 9.68937 82.6302 9.5C82.4228 9.30067 82.1809 9.14618 81.9044 9.03655C81.628 8.92691 81.3367 8.87209 81.0306 8.87209C80.7245 8.87209 80.4332 8.92691 80.1567 9.03655C79.8901 9.14618 79.6531 9.30067 79.4458 9.5C79.2384 9.68937 79.0705 9.92359 78.9422 10.2027C78.8138 10.4817 78.7348 10.7857 78.7052 11.1146H83.3856Z" fill="white"/>
<path d="M35.6081 30.5648V19.9502H40.1848C40.6587 19.9502 41.0932 20.0498 41.4882 20.2492C41.893 20.4485 42.2386 20.7126 42.525 21.0415C42.8113 21.3605 43.0335 21.7292 43.1915 22.1478C43.3593 22.5565 43.4433 22.9751 43.4433 23.4037C43.4433 23.7625 43.3939 24.1063 43.2951 24.4352C43.1964 24.7641 43.0582 25.0681 42.8804 25.3472C42.7027 25.6262 42.4855 25.8704 42.2287 26.0797C41.972 26.2791 41.6906 26.4286 41.3845 26.5282L43.858 30.5648H41.9769L39.696 26.8721H37.267V30.5648H35.6081ZM37.267 25.392H40.17C40.4069 25.392 40.6192 25.3422 40.8069 25.2425C41.0043 25.1329 41.1722 24.9884 41.3104 24.809C41.4487 24.6196 41.5573 24.4053 41.6363 24.1661C41.7153 23.9269 41.7548 23.6728 41.7548 23.4037C41.7548 23.1346 41.7054 22.8804 41.6067 22.6412C41.5178 22.402 41.3944 22.1927 41.2364 22.0133C41.0883 21.8339 40.9105 21.6944 40.7032 21.5947C40.5057 21.4851 40.2983 21.4302 40.0811 21.4302H37.267V25.392Z" fill="white"/>
<path d="M48.4566 30.7143C47.8444 30.7143 47.2915 30.6047 46.7978 30.3854C46.3139 30.1661 45.8992 29.8721 45.5536 29.5033C45.208 29.1346 44.9414 28.706 44.7538 28.2176C44.5662 27.7193 44.4724 27.201 44.4724 26.6628C44.4724 26.1246 44.5662 25.6113 44.7538 25.1229C44.9414 24.6246 45.208 24.191 45.5536 23.8223C45.9091 23.4535 46.3288 23.1595 46.8126 22.9402C47.3063 22.7209 47.8543 22.6113 48.4566 22.6113C49.059 22.6113 49.602 22.7209 50.0859 22.9402C50.5796 23.1595 50.9992 23.4535 51.3448 23.8223C51.7003 24.191 51.9719 24.6246 52.1595 25.1229C52.3471 25.6113 52.4409 26.1246 52.4409 26.6628C52.4409 27.201 52.3471 27.7193 52.1595 28.2176C51.9719 28.706 51.7003 29.1346 51.3448 29.5033C50.9992 29.8721 50.5796 30.1661 50.0859 30.3854C49.602 30.6047 49.059 30.7143 48.4566 30.7143ZM46.1461 26.6777C46.1461 27.0565 46.2053 27.4053 46.3238 27.7243C46.4423 28.0432 46.6052 28.3223 46.8126 28.5615C47.0199 28.7907 47.2619 28.9751 47.5383 29.1146C47.8247 29.2442 48.1308 29.309 48.4566 29.309C48.7825 29.309 49.0837 29.2442 49.3601 29.1146C49.6465 28.9751 49.8933 28.7857 50.1007 28.5465C50.3081 28.3073 50.471 28.0282 50.5895 27.7093C50.708 27.3904 50.7672 27.0415 50.7672 26.6628C50.7672 26.294 50.708 25.9502 50.5895 25.6312C50.471 25.3023 50.3081 25.0183 50.1007 24.7791C49.8933 24.5399 49.6465 24.3555 49.3601 24.2259C49.0837 24.0864 48.7825 24.0166 48.4566 24.0166C48.1407 24.0166 47.8395 24.0864 47.5532 24.2259C47.2767 24.3654 47.0348 24.5548 46.8274 24.794C46.62 25.0332 46.4522 25.3173 46.3238 25.6462C46.2053 25.9651 46.1461 26.309 46.1461 26.6777Z" fill="white"/>
<path d="M57.3665 30.7143C56.7543 30.7143 56.2014 30.6047 55.7077 30.3854C55.2239 30.1661 54.8091 29.8721 54.4635 29.5033C54.1179 29.1346 53.8513 28.706 53.6637 28.2176C53.4761 27.7193 53.3823 27.201 53.3823 26.6628C53.3823 26.1246 53.4761 25.6113 53.6637 25.1229C53.8513 24.6246 54.1179 24.191 54.4635 23.8223C54.819 23.4535 55.2387 23.1595 55.7225 22.9402C56.2162 22.7209 56.7642 22.6113 57.3665 22.6113C57.9689 22.6113 58.512 22.7209 58.9958 22.9402C59.4895 23.1595 59.9091 23.4535 60.2547 23.8223C60.6102 24.191 60.8818 24.6246 61.0694 25.1229C61.257 25.6113 61.3508 26.1246 61.3508 26.6628C61.3508 27.201 61.257 27.7193 61.0694 28.2176C60.8818 28.706 60.6102 29.1346 60.2547 29.5033C59.9091 29.8721 59.4895 30.1661 58.9958 30.3854C58.512 30.6047 57.9689 30.7143 57.3665 30.7143ZM55.056 26.6777C55.056 27.0565 55.1152 27.4053 55.2337 27.7243C55.3522 28.0432 55.5151 28.3223 55.7225 28.5615C55.9299 28.7907 56.1718 28.9751 56.4482 29.1146C56.7346 29.2442 57.0407 29.309 57.3665 29.309C57.6924 29.309 57.9936 29.2442 58.27 29.1146C58.5564 28.9751 58.8032 28.7857 59.0106 28.5465C59.218 28.3073 59.3809 28.0282 59.4994 27.7093C59.6179 27.3904 59.6771 27.0415 59.6771 26.6628C59.6771 26.294 59.6179 25.9502 59.4994 25.6312C59.3809 25.3023 59.218 25.0183 59.0106 24.7791C58.8032 24.5399 58.5564 24.3555 58.27 24.2259C57.9936 24.0864 57.6924 24.0166 57.3665 24.0166C57.0506 24.0166 56.7494 24.0864 56.4631 24.2259C56.1866 24.3654 55.9447 24.5548 55.7373 24.794C55.5299 25.0332 55.3621 25.3173 55.2337 25.6462C55.1152 25.9651 55.056 26.309 55.056 26.6777Z" fill="white"/>
<path d="M74.6448 30.5648H73.0156V26.1844C73.0156 25.4568 72.8971 24.9236 72.6601 24.5847C72.4231 24.2458 72.0775 24.0764 71.6233 24.0764C71.1592 24.0764 70.7346 24.2508 70.3496 24.5997C69.9743 24.9385 69.7028 25.3821 69.5349 25.9302V30.5648H67.9057V26.1844C67.9057 25.4468 67.7872 24.9136 67.5502 24.5847C67.3132 24.2458 66.9726 24.0764 66.5282 24.0764C66.0642 24.0764 65.6396 24.2458 65.2545 24.5847C64.8694 24.9236 64.5929 25.3671 64.425 25.9153V30.5648H62.7958V22.7458H64.2769V24.3156C64.583 23.7674 64.9829 23.3488 65.4766 23.0598C65.9802 22.7608 66.5529 22.6113 67.1948 22.6113C67.8366 22.6113 68.3402 22.7807 68.7055 23.1196C69.0807 23.4585 69.3128 23.8821 69.4016 24.3904C69.7275 23.8123 70.1373 23.3738 70.631 23.0748C71.1247 22.7658 71.6875 22.6113 72.3195 22.6113C72.7737 22.6113 73.1489 22.701 73.4451 22.8804C73.7512 23.0498 73.9931 23.2791 74.1709 23.5681C74.3486 23.8571 74.472 24.196 74.5411 24.5847C74.6103 24.9635 74.6448 25.3671 74.6448 25.7957V30.5648Z" fill="white"/>
<rect x="29.2098" y="14.1429" width="13.6851" height="1.46429" fill="white"/>
<rect x="29.2143" y="19.9197" width="10.1628" height="1.45982" fill="white"/>
<path fill-rule="evenodd" clip-rule="evenodd" d="M18.3358 27.5601L7.79509 22.0508L7.97757 21.7055L18.5183 27.2148L18.3358 27.5601Z" fill="white"/>
<path fill-rule="evenodd" clip-rule="evenodd" d="M24.6013 22.1618V10.6982H24.9935V22.1618H24.6013Z" fill="white"/>
<path fill-rule="evenodd" clip-rule="evenodd" d="M24.4052 15.0357L18.4781 18.5355L18.3089 18.1762L24.205 14.7003L24.4052 15.0357Z" fill="white"/>
<path fill-rule="evenodd" clip-rule="evenodd" d="M23.8114 10.3201L17.9876 6.97192L10.6727 11.2572L16.3696 14.5534L23.8114 10.3201ZM17.9858 6.52032L9.89641 11.2593L16.3679 15.0037L24.6013 10.3201L24.2612 10.1282L17.9858 6.52032Z" fill="white"/>
<path d="M7.85731 22.0732L7.69022 21.9757L7.59217 14.5161L2.68951 11.6396M7.85731 22.0732L14.3263 18.363M7.85731 22.0732L14.3263 25.4641M14.652 18.1762V25.5834L14.3263 25.4641M14.652 18.1762L2.68951 11.2593V9.29936L2.98367 9.10434L16.4169 1.4498L29.6413 9.39689V14.1251H30.0676L30.0832 9.13488L16.4173 1.00006L2.77716 8.77248L2.2973 9.09061V25.1813L16.7116 33.0001L18.1819 32.1982V32.2059L18.4703 32.041L18.6231 31.9576V31.9535L30.0328 25.2245L30.0494 20.4286H29.6413V24.9985L18.5741 31.5316V27.5825L26.663 23.0504L18.3089 18.1762M14.652 18.1762L14.3263 18.363M18.3089 18.1762L18.2309 18.2215V31.7267L16.7111 32.5555L2.68951 24.9497V11.6396M18.3089 18.1762L18.4781 18.5355L24.4052 15.0357L24.205 14.7003L18.3089 18.1762ZM2.68951 11.6396V11.4933M14.3263 18.363V25.4641M24.2612 10.1282L17.9858 6.52032L9.89641 11.2593L16.3679 15.0037L24.6013 10.3201L24.2612 10.1282ZM13.8693 18.1748L8.07618 21.4974L7.9878 14.774L13.8693 18.1748ZM25.8977 23.0614L18.6231 27.0943V18.807L25.8977 23.0614ZM17.9876 6.97192L23.8114 10.3201L16.3696 14.5534L10.6727 11.2572L17.9876 6.97192ZM7.79509 22.0508L18.3358 27.5601L18.5183 27.2148L7.97757 21.7055L7.79509 22.0508ZM24.6013 10.6982V22.1618H24.9935V10.6982H24.6013Z" stroke="white" stroke-width="1.17537"/>
</svg>
